<svg xmlns="http://www.w3.org/2000/svg" width="25" height="24" fill="none"><rect width="2" height="2" x="13.8" y="14" fill="#9B53F8" rx="1"/><path stroke="#9B53F8" stroke-linecap="round" d="M10.8 14h-4M8.8 12v4"/><rect width="2" height="2" x="16.8" y="12" fill="#9B53F8" rx="1"/><path stroke="#9B53F8" stroke-linecap="round" d="M14.8 8v0c0-.417 0-.625-.035-.809a2 2 0 0 0-1.13-1.446c-.169-.078-.37-.129-.775-.23L12.8 5.5c-.461-.115-.692-.173-.883-.267a2 2 0 0 1-1.072-1.373c-.045-.208-.045-.446-.045-.922V2"/><path stroke="#9B53F8" d="M3.8 14c0-2.559 0-3.838.62-4.72.16-.226.346-.43.554-.604C5.782 8 6.954 8 9.3 8h7c2.346 0 3.518 0 4.326.676.208.174.394.378.554.604.62.882.62 2.161.62 4.72 0 2.559 0 3.838-.62 4.72a3.15 3.15 0 0 1-.554.604C19.818 20 18.646 20 16.3 20h-7c-2.346 0-3.518 0-4.326-.676a3.15 3.15 0 0 1-.554-.604c-.62-.882-.62-2.161-.62-4.72Z"/></svg>