<svg xmlns="http://www.w3.org/2000/svg" width="25" height="24" fill="none"><path fill="#F25D5D" d="M14.395 11a2 2 0 0 1-1.245 1.852v2.398a.75.75 0 1 1-1.5 0v-2.394A2 2 0 1 1 14.395 11ZM4.15 5a.75.75 0 0 0-.75.75V11c0 5.001 2.958 8.676 8.725 10.948a.75.75 0 0 0 .55 0C18.442 19.676 21.4 16 21.4 11V5.75a.75.75 0 0 0-.75-.75c-2.663 0-5.258-.943-7.8-2.85a.75.75 0 0 0-.9 0C9.408 4.057 6.813 5 4.15 5Zm.75 6V6.478c2.577-.152 5.08-1.09 7.5-2.8 2.42 1.71 4.923 2.648 7.5 2.8V11c0 4.256-2.453 7.379-7.5 9.442C7.353 18.379 4.9 15.256 4.9 11Z"/></svg>