<svg xmlns="http://www.w3.org/2000/svg" width="40" height="40" fill="none"><path fill="#ED2D95" d="M11.472 37.835a.63.63 0 0 1-.95-.558l.193-27.66c.003-.5.537-.815.96-.564l5.08 3.015c.195.116.314.33.311.562l-.202 21.633a.66.66 0 0 1-.32.562l-5.072 3.01Z"/><path fill="#5002B4" d="M8.889 1.755c0-.498.541-.807.97-.553l20.919 12.434c.23.137.351.402.305.665l-.965 5.48a.642.642 0 0 1-.96.44L9.203 8.342a.643.643 0 0 1-.314-.552V1.755Z"/><path fill="#BD17AC" d="m16.877 28.013 13.882-7.543v-7.542L16.877 20.47v7.542Z"/><path fill="#BD17AC" d="M16.877 26.93c0 .49.521.8.95.566l14.559-7.953a.644.644 0 0 0 .335-.565V12.9a.642.642 0 0 0-.95-.565l-14.56 7.954a.643.643 0 0 0-.334.564v6.078Z"/><path fill="#242731" d="M18.39 12.969c-.784-.433-1.753.12-1.753 1v5.578c0 .88.97 1.434 1.753 1l5.033-2.79c.795-.44.794-1.56 0-2L18.39 12.97Z"/><path stroke="#BD17AC" stroke-linecap="round" stroke-width="1.549" d="m18.209 29.135 10.99-5.965"/><path stroke="#5002B4" stroke-linecap="round" stroke-width="1.549" d="M30.436 11.512 19.594 5.086"/><path stroke="#ED2D95" stroke-linecap="round" stroke-width="1.549" d="M9.21 22.466V9.925"/></svg>