<svg xmlns="http://www.w3.org/2000/svg" width="24" height="24" fill="none"><path stroke="#7D869E" d="M4 9.657c0-.818 0-1.226.152-1.594.152-.367.442-.657 1.02-1.235l.656-.656c.578-.578.868-.868 1.235-1.02C7.431 5 7.84 5 8.657 5h6.686c.818 0 1.226 0 1.594.152.367.152.656.442 1.235 1.02l.656.656c.579.578.867.868 1.02 1.235.152.368.152.776.152 1.594V16c0 1.886 0 2.828-.586 3.414C18.828 20 17.886 20 16 20H8c-1.886 0-2.828 0-3.414-.586C4 18.828 4 17.886 4 16V9.657Z"/><path stroke="#7D869E" stroke-linecap="round" d="M4 10h16"/><path fill="#7D869E" d="M14.833 10H9.166c-.236 0-.354 0-.427.073-.073.073-.073.191-.073.427v3.167c0 .764 0 1.147.099 1.352a1 1 0 0 0 1.232.51c.215-.075.485-.345 1.026-.886.25-.25.376-.376.509-.446a1 1 0 0 1 .935 0c.133.07.258.196.509.446.54.54.81.811 1.026.887a1 1 0 0 0 1.232-.51c.099-.206.099-.588.099-1.353V10.5c0-.236 0-.354-.074-.427-.073-.073-.19-.073-.426-.073Z"/></svg>