<svg xmlns="http://www.w3.org/2000/svg" width="25" height="24" fill="none"><path fill="#4998EE" d="M13.994 4.744h.5v-.022l-.001-.02-.499.042Zm0 0 .499-.043-.001-.007-.498.05Zm0 0h-.5v.025l.003.024.497-.05Zm.12.782-.461.19.462-.19Zm1.31.542-.192-.462.192.462Zm.638-.468.317.387-.317-.387Zm.354-.264.235.442-.235-.442Zm1.022.05.277-.416-.277.417Zm.326.3.354-.354-.354.353Zm.751.75-.354.353.006.006.006.005.342-.364Zm0 0 .354-.354-.006-.006-.006-.005-.342.365Zm.298.326.417-.277-.417.277Zm.051 1.022-.442-.234.442.234Zm-.264.354-.387-.317-.004.004.39.313Zm0 0 .387.316.003-.004-.39-.312Zm-.468.638.462.192-.462-.192Zm.542 1.31-.19.461.19-.462Zm.782.12-.05.497.05-.497Zm.438.063.147-.478-.147.478Zm.686.759.49-.099-.49.099Zm0 1.944-.49-.098.49.098Zm-.686.759.147.478-.147-.478Zm-.438.063.05.498-.05-.498Zm0 0-.05-.497.05.497Zm-.781.12.19.463-.19-.462Zm-.543 1.31.462-.192-.462.192Zm.468.638-.387.317.387-.317Zm.264.354.442-.234-.442.234Zm-.05 1.022.416.277-.417-.277Zm-.299.326-.354-.354.354.354Zm-.75.75.353.354-.353-.353Zm0 0 .353.354-.353-.353Zm-.327.299.277.416-.277-.416Zm-1.021.05.233-.44-.233.44Zm-.355-.264.317-.387-.019-.015-.02-.014-.278.416Zm0 0-.316.387.019.016.02.014.277-.416Zm-.638-.467-.192.461.192-.461Zm-1.31.542-.461-.19.462.19Zm-.12.782.498.05-.498-.05Zm-.063.438-.478-.147.478.147Zm-.759.686.1.49-.1-.49Zm-1.944 0 .098-.49-.098.49Zm-.759-.686.478-.147-.478.147Zm-.063-.438-.498.05.498-.05Zm-.12-.782-.463.19.462-.19Zm-1.31-.542.192.462-.192-.462Zm-.638.468.316.387-.316-.387Zm-.354.264.234.442-.234-.442Zm-1.022-.05-.277.416.277-.417Zm-.326-.299.353-.354-.353.354Zm-.75-.75-.354.353.353-.354Zm-.3-.327-.416.277.417-.277Zm-.05-1.021.442.234-.442-.235Zm.264-.355-.376-.329-.006.006-.005.007.387.316Zm0 0 .376.33.006-.007.005-.006-.387-.317Zm.468-.638-.461-.192.461.192Zm-.542-1.31-.19.463.19-.462Zm-.782-.12-.05.498.05-.498Zm-.438-.063-.147.478.147-.478Zm-.686-.759-.49.099.49-.099Zm-.02-.441h-.5.5Zm0-1.062h.5-.5Zm.02-.441-.49-.1.49.1Zm.686-.759.147.478-.147-.478Zm.438-.063.05.497-.05-.497Zm.782-.121-.19-.462.19.462Zm.542-1.309-.461.192.461-.192ZM5.8 8.138l-.4.3.007.008.006.008.387-.316Zm0 0 .4-.3-.006-.009-.007-.008-.387.317Zm-.264-.355-.442.234.442-.234Zm.05-1.022-.416-.276.417.276Zm1.376-1.375.277.417-.277-.417Zm1.022-.05.234-.442-.234.441Zm.354.264.316-.387-.316.387Zm.638.468-.192.461.192-.461Zm1.31-.543.462.19-.463-.19Zm.12-.782-.494-.082-.002.016-.002.017.498.05Zm0 0 .493.083.003-.016.001-.017-.497-.05Zm.063-.437-.478-.147.478.147Zm.759-.686.098.49-.098-.49Zm1.944 0-.098.49.098-.49Zm.759.686.478-.147-.478.147Zm.562.395-.997.085.997-.085Zm.001.043h-1 1Zm.083.591a.818.818 0 0 1-.032-.16 12.952 12.952 0 0 1-.053-.481l-.995.1c.021.21.038.385.058.522.019.134.045.273.098.4l.924-.38Zm.655.271a.5.5 0 0 1-.655-.27l-.924.38a1.5 1.5 0 0 0 1.963.814l-.384-.924Zm.514-.393c-.171.14-.288.235-.378.303a.81.81 0 0 1-.136.09l.384.924c.127-.053.244-.133.352-.214.111-.084.247-.194.41-.329l-.632-.774Zm.436-.32c-.143.077-.277.19-.436.32l.633.774c.195-.16.238-.192.271-.21l-.468-.883Zm1.533.077a1.5 1.5 0 0 0-1.533-.076l.469.884a.5.5 0 0 1 .51.025l.554-.833Zm.403.362c-.146-.146-.268-.272-.403-.362l-.554.833c.032.02.071.057.25.236l.707-.707Zm.75.75-.75-.75-.707.707.75.75.707-.707Zm-.011-.011-.684.73.684-.73Zm.373.414c-.09-.135-.216-.257-.361-.403l-.708.707c.18.179.215.218.236.25l.833-.554Zm.076 1.533a1.5 1.5 0 0 0-.076-1.533l-.833.554a.5.5 0 0 1 .025.51l.884.469Zm-.32.436c.131-.159.244-.293.32-.436l-.884-.468c-.017.033-.05.076-.21.271l.775.633Zm.004-.004-.78-.625.78.625Zm-.396.518a.81.81 0 0 1 .09-.136c.068-.09.163-.207.303-.378l-.774-.633c-.135.164-.245.3-.329.41-.081.11-.16.226-.214.353l.924.384Zm.27.655a.5.5 0 0 1-.27-.655l-.924-.384a1.5 1.5 0 0 0 .814 1.963l.38-.924Zm.642.085c-.22-.022-.37-.037-.481-.053a.812.812 0 0 1-.16-.032l-.381.924c.127.053.266.079.4.098.137.02.311.037.523.058l.1-.995Zm.535.083c-.155-.047-.33-.062-.535-.083l-.1.995c.252.025.305.033.34.044l.295-.956Zm1.03 1.138a1.5 1.5 0 0 0-1.03-1.138l-.294.956a.5.5 0 0 1 .343.38l.98-.198Zm.029.54c0-.206.002-.381-.03-.54l-.98.197c.008.037.01.09.01.343h1Zm0 1.062v-1.062h-1v1.062h1Zm-.03.54c.032-.159.03-.335.03-.54h-1c0 .252-.002.306-.01.343l.98.197Zm-1.03 1.138a1.5 1.5 0 0 0 1.03-1.138l-.98-.197a.5.5 0 0 1-.343.379l.294.956Zm-.534.083c.205-.02.38-.036.535-.083l-.294-.956c-.036.01-.089.019-.34.044l.1.995Zm0 0-.1-.995.1.995Zm-.641.085a.816.816 0 0 1 .16-.032c.112-.016.261-.031.481-.053l-.1-.995c-.21.02-.384.038-.522.058-.134.019-.272.045-.4.097l.381.925Zm-.271.655a.5.5 0 0 1 .271-.655l-.38-.925a1.5 1.5 0 0 0-.814 1.964l.923-.384Zm.393.513c-.14-.17-.235-.287-.303-.377a.815.815 0 0 1-.09-.136l-.923.384c.053.127.132.244.214.352.083.111.194.246.328.41l.774-.633Zm.32.437c-.077-.143-.19-.277-.32-.437l-.774.634c.16.195.192.238.21.271l.883-.468Zm-.077 1.533a1.5 1.5 0 0 0 .076-1.533l-.884.468a.5.5 0 0 1-.025.511l.833.554Zm-.361.402c.145-.145.271-.267.36-.402l-.832-.554c-.02.031-.057.07-.235.25l.707.707Zm-.751.751.75-.75-.706-.708-.751.751.707.707Zm0 0-.707-.707.707.707Zm-.403.361c.135-.09.258-.215.403-.36l-.707-.708c-.179.179-.218.215-.25.236l.554.832Zm-1.533.077a1.5 1.5 0 0 0 1.533-.077l-.553-.832a.5.5 0 0 1-.511.025l-.469.884Zm-.436-.32c.159.13.293.244.436.32l.469-.884c-.034-.017-.076-.05-.272-.21l-.633.774Zm.039.03.555-.832-.555.831Zm-.553-.423c.008.003.043.02.136.09.09.069.207.163.378.303l.633-.774c-.164-.134-.3-.245-.41-.328a1.67 1.67 0 0 0-.353-.214l-.384.923Zm-.655.271a.5.5 0 0 1 .655-.27l.384-.924a1.5 1.5 0 0 0-1.963.813l.924.381Zm-.085.642c.022-.22.037-.37.053-.481a.819.819 0 0 1 .032-.16l-.924-.382a1.665 1.665 0 0 0-.098.4c-.02.138-.037.312-.058.523l.995.1Zm-.083.535c.047-.155.062-.33.083-.535l-.995-.1c-.025.252-.033.305-.044.341l.956.294Zm-1.138 1.03a1.5 1.5 0 0 0 1.138-1.03l-.956-.294a.5.5 0 0 1-.38.343l.198.98Zm-.54.029c.206 0 .381.003.54-.03l-.197-.98c-.037.008-.09.01-.343.01v1Zm-1.062 0h1.062v-1h-1.062v1Zm-.54-.03c.159.032.335.03.54.03v-1c-.252 0-.306-.002-.343-.01l-.197.98Zm-1.138-1.03a1.5 1.5 0 0 0 1.138 1.03l.197-.98a.5.5 0 0 1-.379-.343l-.956.294Zm-.083-.534c.02.205.036.38.083.535l.956-.294c-.01-.036-.019-.089-.044-.34l-.995.1Zm-.085-.641a.813.813 0 0 1 .032.16c.016.112.031.261.053.481l.995-.1c-.02-.21-.038-.384-.058-.522a1.666 1.666 0 0 0-.098-.4l-.924.38Zm-.655-.271a.5.5 0 0 1 .655.27l.924-.38a1.5 1.5 0 0 0-1.963-.814l.384.924Zm-.514.393c.171-.14.288-.235.378-.303a.818.818 0 0 1 .136-.09l-.384-.924a1.668 1.668 0 0 0-.352.214c-.111.084-.247.194-.41.329l.632.774Zm-.436.32c.143-.077.277-.19.436-.32l-.633-.774c-.195.16-.238.192-.272.21l.469.883Zm-1.533-.077a1.5 1.5 0 0 0 1.533.076l-.469-.884a.5.5 0 0 1-.51-.025l-.554.833Zm-.403-.361c.146.145.268.271.403.36l.554-.832c-.032-.02-.071-.057-.25-.236l-.707.708Zm-.75-.75.75.75.707-.708-.75-.75-.707.707Zm-.362-.404c.09.135.216.258.362.403l.707-.707c-.18-.179-.215-.218-.236-.25l-.833.554Zm-.076-1.533a1.5 1.5 0 0 0 .076 1.533l.833-.553a.5.5 0 0 1-.025-.511l-.884-.469Zm.32-.436c-.131.159-.244.293-.32.437l.884.468c.017-.034.05-.076.21-.272l-.775-.633Zm.01-.013.752.659-.752-.659Zm.383-.501a.812.812 0 0 1-.091.136c-.068.09-.163.207-.303.378l.774.633c.135-.164.245-.3.329-.41.081-.11.16-.226.214-.353l-.923-.384Zm-.272-.655a.5.5 0 0 1 .272.655l.923.384a1.5 1.5 0 0 0-.814-1.963l-.38.924Zm-.641-.085c.22.022.37.037.481.053a.818.818 0 0 1 .16.032l.381-.924a1.661 1.661 0 0 0-.4-.098c-.137-.02-.311-.037-.523-.058l-.1.995Zm-.535-.083c.155.047.33.062.535.083l.1-.995c-.252-.025-.305-.033-.34-.044l-.295.956ZM3.33 13.07a1.5 1.5 0 0 0 1.03 1.138l.294-.956a.5.5 0 0 1-.343-.38l-.98.198Zm-.029-.54c0 .205-.002.381.03.54l.98-.197c-.008-.037-.01-.09-.01-.343h-1Zm0-1.062v1.062h1v-1.062h-1Zm.03-.54c-.032.159-.03.335-.03.54h1c0-.252.002-.306.01-.343l-.98-.197ZM4.36 9.79a1.5 1.5 0 0 0-1.03 1.138l.98.197a.5.5 0 0 1 .343-.379l-.294-.956Zm.534-.083c-.205.02-.38.036-.535.083l.294.956c.036-.011.089-.019.34-.044l-.099-.995Zm.642-.085a.81.81 0 0 1-.16.032c-.113.016-.262.031-.482.053l.1.995c.21-.021.385-.038.522-.058.135-.02.273-.045.4-.098l-.38-.924Zm.27-.655a.5.5 0 0 1-.27.655l.38.924a1.5 1.5 0 0 0 .814-1.963l-.923.384Zm-.393-.514c.14.171.235.288.303.378a.81.81 0 0 1 .09.136l.924-.384a1.667 1.667 0 0 0-.214-.352c-.083-.111-.194-.247-.329-.411l-.774.633ZM5.4 8.438l.8-.6-.8.6Zm-.306-.42c.076.142.189.277.32.436l.773-.633c-.16-.196-.192-.239-.21-.272l-.883.468Zm.076-1.533a1.5 1.5 0 0 0-.076 1.532l.884-.468a.5.5 0 0 1 .025-.51l-.833-.554Zm.362-.403c-.146.145-.272.268-.362.403l.833.553c.02-.03.057-.07.236-.25l-.707-.706Zm.75-.75-.75.75.707.707.75-.75-.707-.708Zm.403-.362c-.135.09-.257.216-.403.361l.707.707c.179-.179.218-.215.25-.235l-.554-.833Zm1.533-.076a1.5 1.5 0 0 0-1.533.076l.554.833a.5.5 0 0 1 .51-.026l.469-.883Zm.436.319c-.159-.13-.293-.244-.436-.32l-.468.884c.033.018.076.05.271.21l.633-.774Zm.514.393a.811.811 0 0 1-.136-.09c-.09-.068-.206-.163-.378-.303l-.633.774c.164.134.3.245.41.328.11.082.226.161.353.214l.384-.923Zm.655-.271a.5.5 0 0 1-.655.271l-.384.923a1.5 1.5 0 0 0 1.964-.813l-.925-.381Zm.085-.641c-.022.22-.037.369-.053.48a.81.81 0 0 1-.032.161l.925.38a1.67 1.67 0 0 0 .097-.4c.02-.137.037-.31.058-.522l-.995-.1Zm.004-.033.987.165-.987-.165Zm.08-.502c-.048.155-.063.33-.084.535l.995.1c.025-.252.033-.305.044-.34l-.956-.295Zm1.137-1.03a1.5 1.5 0 0 0-1.138 1.03l.956.294a.5.5 0 0 1 .38-.343l-.198-.98Zm.54-.029c-.206 0-.381-.002-.54.03l.197.98c.037-.008.09-.01.343-.01v-1Zm1.062 0h-1.062v1h1.062v-1Zm.54.03c-.159-.032-.335-.03-.54-.03v1c.252 0 .306.002.343.01l.197-.98Zm1.138 1.03a1.5 1.5 0 0 0-1.138-1.03l-.197.98a.5.5 0 0 1 .379.343l.956-.294Zm.083.534c-.02-.205-.036-.38-.083-.535l-.956.294c.011.036.019.089.044.34l.995-.1ZM15.06 12a2.86 2.86 0 0 1-2.86 2.86v1A3.86 3.86 0 0 0 16.06 12h-1ZM12.2 9.14A2.86 2.86 0 0 1 15.06 12h1a3.86 3.86 0 0 0-3.86-3.86v1ZM9.34 12a2.86 2.86 0 0 1 2.86-2.86v-1A3.86 3.86 0 0 0 8.34 12h1Zm2.86 2.86A2.86 2.86 0 0 1 9.34 12h-1a3.86 3.86 0 0 0 3.86 3.86v-1Z"/></svg>