<svg xmlns="http://www.w3.org/2000/svg" width="25" height="24" fill="none"><path stroke="#F4A732" d="M9.6 6a3 3 0 1 0 6 0 3 3 0 0 0-6 0ZM5.038 13.902a3 3 0 1 0 3 5.195 3 3 0 0 0-3-5.196ZM20.162 13.902a2.999 2.999 0 1 1-2.998 5.194 2.999 2.999 0 0 1 2.998-5.194Z"/><path fill="#F4A732" fill-rule="evenodd" d="M9.603 6.125a2.993 2.993 0 0 1 .175-1.143 8.507 8.507 0 0 0-5.03 4.766 8.5 8.5 0 0 0-.503 4.817 3 3 0 0 1 .902-.723 7.498 7.498 0 0 1 4.456-7.717Zm5.994 0a7.5 7.5 0 0 1 4.456 7.717 2.998 2.998 0 0 1 .902.723 8.5 8.5 0 0 0-5.533-9.583 3 3 0 0 1 .175 1.143Zm2.536 13.328a3.002 3.002 0 0 1-1.077-.42 7.501 7.501 0 0 1-8.911 0 3 3 0 0 1-1.077.42 8.5 8.5 0 0 0 11.065 0Z" clip-rule="evenodd"/></svg>