<svg xmlns="http://www.w3.org/2000/svg" width="24" height="24" fill="none"><path fill="#7D869E" fill-rule="evenodd" d="M9.852 6.52c-1.443-.93-3.485-.716-4.656.793l-.286.368a4.309 4.309 0 0 0 .455 5.782L11.79 19.5c.103.097.164.154.21.19.045-.037.106-.093.209-.19l6.425-6.036a4.309 4.309 0 0 0 .454-5.782l-.285-.368c-1.243-1.602-3.47-1.746-4.917-.606l-.619-.785c1.857-1.463 4.722-1.29 6.326.778l.286.368a5.31 5.31 0 0 1-.56 7.124l-6.426 6.036-.013.013c-.1.093-.198.186-.29.256a.964.964 0 0 1-.405.195l-.086-.439.086.439a.963.963 0 0 1-.37 0l.096-.49-.097.49a.964.964 0 0 1-.406-.195c-.091-.07-.19-.163-.289-.256l-.013-.013-6.426-6.036a5.309 5.309 0 0 1-.56-7.124l.286-.368c1.65-2.126 4.632-2.25 6.482-.65l.361.313-.296.376-.85 1.078c-.337.427-.557.707-.688.933-.125.214-.125.303-.115.359.01.055.042.139.234.294.204.165.508.349.975.629l.873.524.03.017c.397.239.738.444.988.644.267.214.492.471.573.836.082.364-.01.693-.16 1-.14.289-.36.62-.618 1.005l-.019.028-.685 1.028-.832-.555.685-1.027c.281-.422.463-.696.57-.915.1-.206.096-.291.084-.345-.012-.053-.046-.132-.224-.275-.19-.153-.471-.323-.906-.583l-.874-.525-.03-.018c-.428-.257-.794-.476-1.059-.69-.281-.228-.517-.503-.589-.892-.071-.39.052-.73.235-1.043.172-.294.436-.63.745-1.021l.022-.028.534-.676Z" clip-rule="evenodd"/></svg>